<mxfile host="app.diagrams.net" agent="Mozilla/5.0 (Windows NT 10.0; Win64; x64) AppleWebKit/537.36 (KHTML, like Gecko) Chrome/130.0.0.0 Safari/537.36 Edg/130.0.0.0" version="24.8.3">
  <diagram name="Page-1" id="-RTBHc4PQP8Oy-unTQjL">
    <mxGraphModel dx="1259" dy="1133" grid="1" gridSize="10" guides="1" tooltips="1" connect="1" arrows="1" fold="1" page="1" pageScale="1" pageWidth="827" pageHeight="1169" math="0" shadow="0">
      <root>
        <mxCell id="0" />
        <mxCell id="1" parent="0" />
        <mxCell id="eaV0kb-oczGV2xedP1AH-1" value="&lt;font style=&quot;font-size: 18px;&quot;&gt;Start Game&lt;/font&gt;" style="strokeWidth=2;html=1;shape=mxgraph.flowchart.start_1;whiteSpace=wrap;" vertex="1" parent="1">
          <mxGeometry x="280" y="50" width="100" height="60" as="geometry" />
        </mxCell>
        <mxCell id="eaV0kb-oczGV2xedP1AH-8" style="edgeStyle=orthogonalEdgeStyle;rounded=0;orthogonalLoop=1;jettySize=auto;html=1;" edge="1" parent="1" source="eaV0kb-oczGV2xedP1AH-2" target="eaV0kb-oczGV2xedP1AH-5">
          <mxGeometry relative="1" as="geometry" />
        </mxCell>
        <mxCell id="eaV0kb-oczGV2xedP1AH-2" value="&lt;span style=&quot;font-size: 18px;&quot;&gt;Get maze size &amp;amp; traps quantity&lt;/span&gt;" style="html=1;strokeWidth=2;shape=manualInput;whiteSpace=wrap;rounded=1;size=26;arcSize=11;" vertex="1" parent="1">
          <mxGeometry x="120" y="130" width="400" height="60" as="geometry" />
        </mxCell>
        <mxCell id="eaV0kb-oczGV2xedP1AH-4" style="edgeStyle=orthogonalEdgeStyle;rounded=0;orthogonalLoop=1;jettySize=auto;html=1;entryX=0.514;entryY=0.187;entryDx=0;entryDy=0;entryPerimeter=0;" edge="1" parent="1" source="eaV0kb-oczGV2xedP1AH-1" target="eaV0kb-oczGV2xedP1AH-2">
          <mxGeometry relative="1" as="geometry" />
        </mxCell>
        <mxCell id="eaV0kb-oczGV2xedP1AH-11" style="edgeStyle=orthogonalEdgeStyle;rounded=0;orthogonalLoop=1;jettySize=auto;html=1;" edge="1" parent="1" source="eaV0kb-oczGV2xedP1AH-5" target="eaV0kb-oczGV2xedP1AH-17">
          <mxGeometry relative="1" as="geometry" />
        </mxCell>
        <mxCell id="eaV0kb-oczGV2xedP1AH-5" value="&lt;font style=&quot;font-size: 18px;&quot;&gt;Generate maze based on input&lt;/font&gt;" style="rounded=1;whiteSpace=wrap;html=1;absoluteArcSize=1;arcSize=14;strokeWidth=2;" vertex="1" parent="1">
          <mxGeometry x="230" y="220" width="180" height="100" as="geometry" />
        </mxCell>
        <mxCell id="eaV0kb-oczGV2xedP1AH-13" style="edgeStyle=orthogonalEdgeStyle;rounded=0;orthogonalLoop=1;jettySize=auto;html=1;" edge="1" parent="1" source="eaV0kb-oczGV2xedP1AH-10" target="eaV0kb-oczGV2xedP1AH-12">
          <mxGeometry relative="1" as="geometry" />
        </mxCell>
        <mxCell id="eaV0kb-oczGV2xedP1AH-10" value="&lt;font style=&quot;font-size: 18px;&quot;&gt;Navigation input &amp;lt;^v&amp;gt;&lt;/font&gt;" style="rounded=1;whiteSpace=wrap;html=1;absoluteArcSize=1;arcSize=14;strokeWidth=2;" vertex="1" parent="1">
          <mxGeometry x="240" y="510" width="180" height="100" as="geometry" />
        </mxCell>
        <mxCell id="eaV0kb-oczGV2xedP1AH-19" style="edgeStyle=orthogonalEdgeStyle;rounded=0;orthogonalLoop=1;jettySize=auto;html=1;" edge="1" parent="1" source="eaV0kb-oczGV2xedP1AH-12" target="eaV0kb-oczGV2xedP1AH-15">
          <mxGeometry relative="1" as="geometry" />
        </mxCell>
        <mxCell id="eaV0kb-oczGV2xedP1AH-20" style="edgeStyle=orthogonalEdgeStyle;rounded=0;orthogonalLoop=1;jettySize=auto;html=1;" edge="1" parent="1" source="eaV0kb-oczGV2xedP1AH-12" target="eaV0kb-oczGV2xedP1AH-14">
          <mxGeometry relative="1" as="geometry" />
        </mxCell>
        <mxCell id="eaV0kb-oczGV2xedP1AH-21" style="edgeStyle=orthogonalEdgeStyle;rounded=0;orthogonalLoop=1;jettySize=auto;html=1;" edge="1" parent="1" source="eaV0kb-oczGV2xedP1AH-12" target="eaV0kb-oczGV2xedP1AH-16">
          <mxGeometry relative="1" as="geometry" />
        </mxCell>
        <mxCell id="eaV0kb-oczGV2xedP1AH-12" value="&lt;font style=&quot;font-size: 18px;&quot;&gt;Check Game State&lt;/font&gt;" style="rounded=1;whiteSpace=wrap;html=1;absoluteArcSize=1;arcSize=14;strokeWidth=2;" vertex="1" parent="1">
          <mxGeometry x="240" y="650" width="170" height="100" as="geometry" />
        </mxCell>
        <mxCell id="eaV0kb-oczGV2xedP1AH-32" style="edgeStyle=orthogonalEdgeStyle;rounded=0;orthogonalLoop=1;jettySize=auto;html=1;exitX=0.5;exitY=1;exitDx=0;exitDy=0;exitPerimeter=0;" edge="1" parent="1" source="eaV0kb-oczGV2xedP1AH-14" target="eaV0kb-oczGV2xedP1AH-30">
          <mxGeometry relative="1" as="geometry" />
        </mxCell>
        <mxCell id="eaV0kb-oczGV2xedP1AH-36" style="edgeStyle=orthogonalEdgeStyle;rounded=0;orthogonalLoop=1;jettySize=auto;html=1;entryX=0;entryY=0.5;entryDx=0;entryDy=0;" edge="1" parent="1" source="eaV0kb-oczGV2xedP1AH-14" target="eaV0kb-oczGV2xedP1AH-5">
          <mxGeometry relative="1" as="geometry">
            <Array as="points">
              <mxPoint x="480" y="875" />
              <mxPoint x="480" y="560" />
              <mxPoint x="170" y="560" />
              <mxPoint x="170" y="270" />
            </Array>
          </mxGeometry>
        </mxCell>
        <mxCell id="eaV0kb-oczGV2xedP1AH-14" value="&lt;font style=&quot;font-size: 18px;&quot;&gt;Player Found Key?&lt;/font&gt;" style="strokeWidth=2;html=1;shape=mxgraph.flowchart.decision;whiteSpace=wrap;" vertex="1" parent="1">
          <mxGeometry x="270" y="800" width="150" height="150" as="geometry" />
        </mxCell>
        <mxCell id="eaV0kb-oczGV2xedP1AH-31" style="edgeStyle=orthogonalEdgeStyle;rounded=0;orthogonalLoop=1;jettySize=auto;html=1;exitX=0.5;exitY=1;exitDx=0;exitDy=0;exitPerimeter=0;" edge="1" parent="1" source="eaV0kb-oczGV2xedP1AH-15" target="eaV0kb-oczGV2xedP1AH-30">
          <mxGeometry relative="1" as="geometry" />
        </mxCell>
        <mxCell id="eaV0kb-oczGV2xedP1AH-35" style="edgeStyle=orthogonalEdgeStyle;rounded=0;orthogonalLoop=1;jettySize=auto;html=1;exitX=0;exitY=0.5;exitDx=0;exitDy=0;exitPerimeter=0;entryX=0;entryY=0.5;entryDx=0;entryDy=0;" edge="1" parent="1" source="eaV0kb-oczGV2xedP1AH-15" target="eaV0kb-oczGV2xedP1AH-5">
          <mxGeometry relative="1" as="geometry" />
        </mxCell>
        <mxCell id="eaV0kb-oczGV2xedP1AH-15" value="&lt;font style=&quot;font-size: 18px;&quot;&gt;Player Found Exit?&lt;/font&gt;" style="strokeWidth=2;html=1;shape=mxgraph.flowchart.decision;whiteSpace=wrap;" vertex="1" parent="1">
          <mxGeometry x="90" y="800" width="150" height="150" as="geometry" />
        </mxCell>
        <mxCell id="eaV0kb-oczGV2xedP1AH-33" style="edgeStyle=orthogonalEdgeStyle;rounded=0;orthogonalLoop=1;jettySize=auto;html=1;exitX=0.5;exitY=1;exitDx=0;exitDy=0;exitPerimeter=0;" edge="1" parent="1" source="eaV0kb-oczGV2xedP1AH-16" target="eaV0kb-oczGV2xedP1AH-30">
          <mxGeometry relative="1" as="geometry" />
        </mxCell>
        <mxCell id="eaV0kb-oczGV2xedP1AH-37" style="edgeStyle=orthogonalEdgeStyle;rounded=0;orthogonalLoop=1;jettySize=auto;html=1;entryX=1;entryY=0.5;entryDx=0;entryDy=0;" edge="1" parent="1" source="eaV0kb-oczGV2xedP1AH-16" target="eaV0kb-oczGV2xedP1AH-5">
          <mxGeometry relative="1" as="geometry">
            <Array as="points">
              <mxPoint x="710" y="270" />
            </Array>
          </mxGeometry>
        </mxCell>
        <mxCell id="eaV0kb-oczGV2xedP1AH-16" value="&lt;font style=&quot;font-size: 18px;&quot;&gt;Player Died To Trap?&lt;/font&gt;" style="strokeWidth=2;html=1;shape=mxgraph.flowchart.decision;whiteSpace=wrap;" vertex="1" parent="1">
          <mxGeometry x="590" y="780" width="160" height="150" as="geometry" />
        </mxCell>
        <mxCell id="eaV0kb-oczGV2xedP1AH-18" style="edgeStyle=orthogonalEdgeStyle;rounded=0;orthogonalLoop=1;jettySize=auto;html=1;" edge="1" parent="1" source="eaV0kb-oczGV2xedP1AH-17" target="eaV0kb-oczGV2xedP1AH-10">
          <mxGeometry relative="1" as="geometry" />
        </mxCell>
        <mxCell id="eaV0kb-oczGV2xedP1AH-17" value="&lt;font style=&quot;font-size: 18px;&quot;&gt;Render Maze&lt;/font&gt;" style="rounded=1;whiteSpace=wrap;html=1;absoluteArcSize=1;arcSize=14;strokeWidth=2;" vertex="1" parent="1">
          <mxGeometry x="240" y="360" width="170" height="100" as="geometry" />
        </mxCell>
        <mxCell id="eaV0kb-oczGV2xedP1AH-23" value="&lt;span style=&quot;font-size: 18px;&quot;&gt;True&lt;/span&gt;" style="text;html=1;align=center;verticalAlign=middle;resizable=0;points=[];autosize=1;strokeColor=none;fillColor=none;" vertex="1" parent="1">
          <mxGeometry x="100" y="940" width="60" height="40" as="geometry" />
        </mxCell>
        <mxCell id="eaV0kb-oczGV2xedP1AH-24" value="&lt;span style=&quot;font-size: 18px;&quot;&gt;True&lt;/span&gt;" style="text;html=1;align=center;verticalAlign=middle;resizable=0;points=[];autosize=1;strokeColor=none;fillColor=none;" vertex="1" parent="1">
          <mxGeometry x="360" y="930" width="60" height="40" as="geometry" />
        </mxCell>
        <mxCell id="eaV0kb-oczGV2xedP1AH-25" value="&lt;span style=&quot;font-size: 18px;&quot;&gt;True&lt;/span&gt;" style="text;html=1;align=center;verticalAlign=middle;resizable=0;points=[];autosize=1;strokeColor=none;fillColor=none;" vertex="1" parent="1">
          <mxGeometry x="570" y="910" width="60" height="40" as="geometry" />
        </mxCell>
        <mxCell id="eaV0kb-oczGV2xedP1AH-26" value="&lt;span style=&quot;font-size: 18px;&quot;&gt;False&lt;/span&gt;" style="text;html=1;align=center;verticalAlign=middle;resizable=0;points=[];autosize=1;strokeColor=none;fillColor=none;" vertex="1" parent="1">
          <mxGeometry x="410" y="815" width="70" height="40" as="geometry" />
        </mxCell>
        <mxCell id="eaV0kb-oczGV2xedP1AH-28" value="&lt;span style=&quot;font-size: 18px;&quot;&gt;False&lt;/span&gt;" style="text;html=1;align=center;verticalAlign=middle;resizable=0;points=[];autosize=1;strokeColor=none;fillColor=none;" vertex="1" parent="1">
          <mxGeometry x="780" y="830" width="70" height="40" as="geometry" />
        </mxCell>
        <mxCell id="eaV0kb-oczGV2xedP1AH-29" value="&lt;span style=&quot;font-size: 18px;&quot;&gt;False&lt;/span&gt;" style="text;html=1;align=center;verticalAlign=middle;resizable=0;points=[];autosize=1;strokeColor=none;fillColor=none;" vertex="1" parent="1">
          <mxGeometry x="10" y="855" width="70" height="40" as="geometry" />
        </mxCell>
        <mxCell id="eaV0kb-oczGV2xedP1AH-34" style="edgeStyle=orthogonalEdgeStyle;rounded=0;orthogonalLoop=1;jettySize=auto;html=1;entryX=1;entryY=0.5;entryDx=0;entryDy=0;" edge="1" parent="1" source="eaV0kb-oczGV2xedP1AH-30" target="eaV0kb-oczGV2xedP1AH-5">
          <mxGeometry relative="1" as="geometry">
            <Array as="points">
              <mxPoint x="540" y="1075" />
              <mxPoint x="540" y="675" />
              <mxPoint x="620" y="675" />
              <mxPoint x="620" y="270" />
            </Array>
          </mxGeometry>
        </mxCell>
        <mxCell id="eaV0kb-oczGV2xedP1AH-30" value="&lt;font style=&quot;font-size: 18px;&quot;&gt;Notify Player&lt;/font&gt;" style="shape=parallelogram;html=1;strokeWidth=2;perimeter=parallelogramPerimeter;whiteSpace=wrap;rounded=1;arcSize=12;size=0.23;" vertex="1" parent="1">
          <mxGeometry x="170" y="1030" width="190" height="90" as="geometry" />
        </mxCell>
      </root>
    </mxGraphModel>
  </diagram>
</mxfile>
